<?xml version="1.0" encoding="UTF-8" standalone="no"?>
<!DOCTYPE svg PUBLIC "-//W3C//DTD SVG 1.1//EN" "http://www.w3.org/Graphics/SVG/1.1/DTD/svg11.dtd">
<svg width="100%" height="100%" viewBox="0 0 154 157" version="1.1" xmlns="http://www.w3.org/2000/svg" xmlns:xlink="http://www.w3.org/1999/xlink" xml:space="preserve" xmlns:serif="http://www.serif.com/" style="fill-rule:evenodd;clip-rule:evenodd;stroke-linejoin:round;stroke-miterlimit:2;">
    <g id="Background" transform="matrix(1,0,0,1,-169.802125,-148.389487)">
        <path d="M286.368,156.735C294.408,161.69 302.244,165.439 312.965,182.195C346.835,235.137 291.433,312.036 223.389,280.73C217.258,277.909 216.206,275.575 213.881,277.88C195.914,295.691 186.869,311.984 173.849,301.119C168.785,296.893 168.467,287.902 172.931,282.889C179.688,275.3 197.509,259.047 196.228,256.623C194.639,253.617 187.586,245.059 185.134,226.538C178.303,174.924 233.197,129.032 286.368,156.735Z" style="fill:rgb(6,31,56);"/>
        <path d="M243.577,160.876C246.868,160.441 267.167,157.759 284.32,168.76C304.691,181.824 309.3,201.146 310.119,204.581C324.01,262.813 247.848,305.728 206.961,252.169C190.522,230.636 194.642,198.123 208.851,181.785C222.55,166.034 232.41,163.735 243.577,160.876Z" style="fill:rgb(231,248,249);"/>
        <path d="M229.394,221.797C223.323,219.786 223.459,219.692 217.338,217.755C213.571,216.562 219.139,215.196 219.398,215.133C255.22,206.345 254.654,204.511 290.519,195.708C293.32,195.02 290.078,201.563 286.941,208.7C284.572,214.088 272.658,244.43 271.427,245.404C269.492,246.937 253.916,232.432 253.885,232.368C252.783,230.035 280.613,208.617 280.455,204.504C280.325,201.141 277.922,202.965 241.751,220.981C235.881,223.905 235.626,223.839 229.394,221.797Z" style="fill:rgb(47,174,176);"/>
        <path d="M197.234,266.408C199.13,271.767 198.691,272.826 206.561,276.648C205.556,279.442 205.032,279.098 189.864,294.851C178.752,306.392 175.123,292.767 175.136,291.496C175.196,285.608 195.615,267.399 197.234,266.408Z" style="fill:rgb(47,174,176);"/>
        <path d="M237.558,228.497C237.538,228.157 237.354,227.84 237.334,227.501C237.186,224.978 252.428,219.162 267.725,210.94C284.464,201.945 265.067,216.576 252.692,228.696C249.188,232.127 251.048,232.868 254.254,236.636C255.867,238.53 243.72,249.223 242.564,248.402C241.621,247.732 241.833,247.541 238.81,234.447C238.159,230.584 237.692,228.964 237.558,228.497Z" style="fill:rgb(6,31,56);"/>
        <path d="M221.732,190.704C215.222,200.239 215.518,200.654 214.535,200.769C213.978,200.834 209.338,201.238 213.969,193.781C220.717,182.913 222.729,184.855 223.451,185.553C225.844,187.863 223.763,188.103 221.732,190.704Z" style="fill:rgb(6,31,56);"/>
        <path d="M238.524,173.57C241.286,173.588 242.26,173.812 241.485,176.494C240.733,179.096 233.055,177.653 238.524,173.57Z" style="fill:rgb(6,31,56);"/>
        <path d="M231.3,182.258C225.586,184.805 227.342,177.727 230.552,178.301C233.206,178.775 232.596,179.839 231.3,182.258Z" style="fill:rgb(6,31,56);"/>
    </g>
</svg>
